<svg xmlns="http://www.w3.org/2000/svg" width="800" height="562" viewBox="0 0 800 562" font-family="system-ui, -apple-system, Segoe UI, sans-serif">
<rect width="800" height="562" fill="#fcfcfb"/>
<text x="52.0" y="22.0" font-size="14" fill="#0b0b0b" text-anchor="start" font-weight="600" >How bright the glow still is at each depth inside the rect, before the change</text>
<text x="52.0" y="40.0" font-size="12" fill="#52514e" text-anchor="start" font-weight="400" >Brightest channel over every pixel at that depth, 8-bit levels. The axis stops at 12 so the faint tail shows;</text>
<text x="52.0" y="55.0" font-size="12" fill="#52514e" text-anchor="start" font-weight="400" >the curve leaves the top near the edge, where the line itself is.</text>
<text x="52.0" y="80.0" font-size="13" fill="#0b0b0b" text-anchor="start" font-weight="600" >Defaults (glowRadius 5)</text>
<text x="382.0" y="80.0" font-size="11" fill="#52514e" text-anchor="end" font-weight="400" >last lit pixel 310 px</text>
<rect x="297.0" y="106" width="85.0" height="170" fill="#eb6834" fill-opacity="0.10"/>
<line x1="52" x2="382" y1="276.0" y2="276.0" stroke="#c3c2b7" stroke-width="1"/>
<text x="44.0" y="280.0" font-size="11" fill="#898781" text-anchor="end" font-weight="400" font-variant-numeric="tabular-nums">0</text>
<line x1="52" x2="382" y1="219.3" y2="219.3" stroke="#e1e0d9" stroke-width="1"/>
<text x="44.0" y="223.3" font-size="11" fill="#898781" text-anchor="end" font-weight="400" font-variant-numeric="tabular-nums">4</text>
<line x1="52" x2="382" y1="162.7" y2="162.7" stroke="#e1e0d9" stroke-width="1"/>
<text x="44.0" y="166.7" font-size="11" fill="#898781" text-anchor="end" font-weight="400" font-variant-numeric="tabular-nums">8</text>
<line x1="52" x2="382" y1="106.0" y2="106.0" stroke="#e1e0d9" stroke-width="1"/>
<text x="44.0" y="110.0" font-size="11" fill="#898781" text-anchor="end" font-weight="400" font-variant-numeric="tabular-nums">12</text>
<text x="52.0" y="292.0" font-size="11" fill="#898781" text-anchor="middle" font-weight="400" font-variant-numeric="tabular-nums">0</text>
<text x="118.0" y="292.0" font-size="11" fill="#898781" text-anchor="middle" font-weight="400" font-variant-numeric="tabular-nums">100</text>
<text x="184.0" y="292.0" font-size="11" fill="#898781" text-anchor="middle" font-weight="400" font-variant-numeric="tabular-nums">200</text>
<text x="250.0" y="292.0" font-size="11" fill="#898781" text-anchor="middle" font-weight="400" font-variant-numeric="tabular-nums">300</text>
<text x="316.0" y="292.0" font-size="11" fill="#898781" text-anchor="middle" font-weight="400" font-variant-numeric="tabular-nums">400</text>
<text x="382.0" y="292.0" font-size="11" fill="#898781" text-anchor="middle" font-weight="400" font-variant-numeric="tabular-nums">500</text>
<clipPath id="c0"><rect x="52" y="106" width="330" height="170"/></clipPath>
<polyline points="52.0,106.0 52.7,106.0 53.3,106.0 54.0,106.0 54.6,106.0 55.3,106.0 56.0,106.0 56.6,106.0 57.3,106.0 57.9,106.0 58.6,106.0 59.3,106.0 59.9,106.0 60.6,106.0 61.2,106.0 61.9,106.0 62.6,106.0 63.2,106.0 63.9,106.0 64.5,106.0 65.2,106.0 65.9,106.0 66.5,106.0 67.2,106.0 67.8,106.0 68.5,106.0 69.2,106.0 69.8,106.0 70.5,106.0 71.1,106.0 71.8,106.0 72.5,106.0 73.1,106.0 73.8,106.0 74.4,106.0 75.1,106.0 75.8,106.0 76.4,106.0 77.1,106.0 77.7,106.0 78.4,106.0 79.1,106.0 79.7,106.0 80.4,106.0 81.0,106.0 81.7,106.0 82.4,106.0 83.0,106.0 83.7,106.0 84.3,106.0 85.0,106.0 85.7,106.0 86.3,106.0 87.0,106.0 87.6,106.0 88.3,106.0 89.0,106.0 89.6,106.0 90.3,106.0 90.9,106.0 91.6,106.0 92.3,106.0 92.9,106.0 93.6,106.0 94.2,106.0 94.9,106.0 95.6,106.0 96.2,106.0 96.9,106.0 97.5,106.0 98.2,106.0 98.9,106.0 99.5,106.0 100.2,106.0 100.8,106.0 101.5,106.0 102.2,106.0 102.8,106.0 103.5,106.0 104.1,106.0 104.8,106.0 105.5,106.0 106.1,106.0 106.8,106.0 107.4,106.0 108.1,106.0 108.8,106.0 109.4,106.0 110.1,106.0 110.7,106.0 111.4,106.0 112.1,106.0 112.7,106.0 113.4,106.0 114.0,106.0 114.7,106.0 115.4,106.0 116.0,106.0 116.7,106.0 117.3,106.0 118.0,106.0 118.7,106.0 119.3,106.0 120.0,106.0 120.6,106.0 121.3,106.0 122.0,106.0 122.6,106.0 123.3,106.0 123.9,106.0 124.6,106.0 125.3,106.0 125.9,106.0 126.6,106.0 127.2,106.0 127.9,106.0 128.6,106.0 129.2,106.0 129.9,106.0 130.5,106.0 131.2,106.0 131.9,106.0 132.5,106.0 133.2,106.0 133.8,106.0 134.5,106.0 135.2,106.0 135.8,106.0 136.5,106.0 137.1,106.0 137.8,106.0 138.5,106.0 139.1,106.0 139.8,106.0 140.4,106.0 141.1,106.0 141.8,106.0 142.4,106.0 143.1,106.0 143.7,106.0 144.4,106.0 145.1,106.0 145.7,106.0 146.4,106.0 147.0,106.0 147.7,106.0 148.4,106.0 149.0,106.0 149.7,106.0 150.3,106.0 151.0,106.0 151.7,106.0 152.3,106.0 153.0,106.0 153.6,106.0 154.3,106.0 155.0,106.0 155.6,106.0 156.3,106.0 156.9,106.0 157.6,106.0 158.3,106.0 158.9,106.0 159.6,106.0 160.2,106.0 160.9,106.0 161.6,106.0 162.2,106.0 162.9,106.0 163.5,106.0 164.2,106.0 164.9,106.0 165.5,106.0 166.2,106.0 166.8,106.0 167.5,106.0 168.2,106.0 168.8,106.0 169.5,106.0 170.1,106.0 170.8,106.0 171.5,106.0 172.1,106.0 172.8,106.0 173.4,106.0 174.1,106.0 174.8,106.0 175.4,106.0 176.1,106.0 176.7,106.0 177.4,106.0 178.1,106.0 178.7,106.0 179.4,106.0 180.0,106.0 180.7,106.0 181.4,106.0 182.0,106.0 182.7,106.0 183.3,106.0 184.0,106.0 184.7,106.0 185.3,106.0 186.0,106.0 186.6,106.0 187.3,106.0 188.0,106.0 188.6,106.0 189.3,106.0 189.9,106.0 190.6,106.0 191.3,106.0 191.9,106.0 192.6,106.0 193.2,106.0 193.9,106.0 194.6,106.0 195.2,106.0 195.9,106.0 196.5,106.0 197.2,106.0 197.9,106.0 198.5,106.0 199.2,106.0 199.8,106.0 200.5,106.0 201.2,106.0 201.8,106.0 202.5,106.0 203.1,120.2 203.8,120.2 204.5,120.2 205.1,120.2 205.8,120.2 206.4,120.2 207.1,120.2 207.8,134.3 208.4,134.3 209.1,134.3 209.7,134.3 210.4,134.3 211.1,134.3 211.7,148.5 212.4,148.5 213.0,148.5 213.7,148.5 214.4,148.5 215.0,148.5 215.7,148.5 216.3,162.7 217.0,162.7 217.7,162.7 218.3,162.7 219.0,162.7 219.6,162.7 220.3,162.7 221.0,162.7 221.6,176.8 222.3,176.8 222.9,176.8 223.6,176.8 224.3,176.8 224.9,176.8 225.6,176.8 226.2,191.0 226.9,191.0 227.6,191.0 228.2,191.0 228.9,191.0 229.5,191.0 230.2,191.0 230.9,191.0 231.5,205.2 232.2,205.2 232.8,205.2 233.5,205.2 234.2,205.2 234.8,205.2 235.5,205.2 236.1,219.3 236.8,219.3 237.5,219.3 238.1,219.3 238.8,219.3 239.4,219.3 240.1,219.3 240.8,219.3 241.4,219.3 242.1,233.5 242.7,233.5 243.4,233.5 244.1,233.5 244.7,233.5 245.4,233.5 246.0,233.5 246.7,233.5 247.4,247.7 248.0,247.7 248.7,247.7 249.3,247.7 250.0,247.7 250.7,247.7 251.3,247.7 252.0,247.7 252.6,261.8 253.3,261.8 254.0,261.8 254.6,261.8 255.3,261.8 255.9,261.8 256.6,261.8 257.3,276.0 257.9,276.0 258.6,276.0 259.2,276.0 259.9,276.0 260.6,276.0 261.2,276.0 261.9,276.0 262.5,276.0 263.2,276.0 263.9,276.0 264.5,276.0 265.2,276.0 265.8,276.0 266.5,276.0 267.2,276.0 267.8,276.0 268.5,276.0 269.1,276.0 269.8,276.0 270.5,276.0 271.1,276.0 271.8,276.0 272.4,276.0 273.1,276.0 273.8,276.0 274.4,276.0 275.1,276.0 275.7,276.0 276.4,276.0 277.1,276.0 277.7,276.0 278.4,276.0 279.0,276.0 279.7,276.0 280.4,276.0 281.0,276.0 281.7,276.0 282.3,276.0 283.0,276.0 283.7,276.0 284.3,276.0 285.0,276.0 285.6,276.0 286.3,276.0 287.0,276.0 287.6,276.0 288.3,276.0 288.9,276.0 289.6,276.0 290.3,276.0 290.9,276.0 291.6,276.0 292.2,276.0 292.9,276.0 293.6,276.0 294.2,276.0 294.9,276.0 295.5,276.0 296.2,276.0 296.9,276.0 297.5,276.0 298.2,276.0 298.8,276.0 299.5,276.0 300.2,276.0 300.8,276.0 301.5,276.0 302.1,276.0 302.8,276.0 303.5,276.0 304.1,276.0 304.8,276.0 305.4,276.0 306.1,276.0 306.8,276.0 307.4,276.0 308.1,276.0 308.7,276.0 309.4,276.0 310.1,276.0 310.7,276.0 311.4,276.0 312.0,276.0 312.7,276.0 313.4,276.0 314.0,276.0 314.7,276.0 315.3,276.0 316.0,276.0 316.7,276.0 317.3,276.0 318.0,276.0 318.6,276.0 319.3,276.0 320.0,276.0 320.6,276.0 321.3,276.0 321.9,276.0 322.6,276.0 323.3,276.0 323.9,276.0 324.6,276.0 325.2,276.0 325.9,276.0 326.6,276.0 327.2,276.0 327.9,276.0 328.5,276.0 329.2,276.0 329.9,276.0 330.5,276.0 331.2,276.0 331.8,276.0 332.5,276.0 333.2,276.0 333.8,276.0 334.5,276.0 335.1,276.0 335.8,276.0 336.5,276.0 337.1,276.0 337.8,276.0 338.4,276.0 339.1,276.0 339.8,276.0 340.4,276.0 341.1,276.0 341.7,276.0 342.4,276.0 343.1,276.0 343.7,276.0 344.4,276.0 345.0,276.0 345.7,276.0 346.4,276.0 347.0,276.0 347.7,276.0 348.3,276.0 349.0,276.0 349.7,276.0 350.3,276.0 351.0,276.0 351.6,276.0 352.3,276.0 353.0,276.0 353.6,276.0 354.3,276.0 354.9,276.0 355.6,276.0 356.3,276.0 356.9,276.0 357.6,276.0 358.2,276.0 358.9,276.0 359.6,276.0 360.2,276.0 360.9,276.0 361.5,276.0 362.2,276.0 362.9,276.0 363.5,276.0 364.2,276.0 364.8,276.0 365.5,276.0 366.2,276.0 366.8,276.0 367.5,276.0 368.1,276.0 368.8,276.0 369.5,276.0 370.1,276.0 370.8,276.0 371.4,276.0 372.1,276.0 372.8,276.0 373.4,276.0 374.1,276.0 374.7,276.0 375.4,276.0 376.1,276.0 376.7,276.0 377.4,276.0 378.0,276.0 378.7,276.0 379.4,276.0 380.0,276.0 380.7,276.0 381.3,276.0 382.0,276.0" fill="none" stroke="#2a78d6" stroke-width="2" stroke-linejoin="round" clip-path="url(#c0)"/>
<line x1="257.9" x2="257.9" y1="106" y2="276" stroke="#52514e" stroke-width="1.5" stroke-dasharray="4 3"/>
<text x="253.9" y="100.0" font-size="11" fill="#52514e" text-anchor="end" font-weight="400" >reach 312</text>
<line x1="297.0" x2="297.0" y1="106" y2="276" stroke="#eb6834" stroke-width="2"/>
<text x="301.0" y="100.0" font-size="11" fill="#0b0b0b" text-anchor="start" font-weight="600" >hole 371</text>
<text x="382.0" y="310.0" font-size="11" fill="#898781" text-anchor="end" font-weight="400" >depth inside the edge, px</text>
<text x="446.0" y="80.0" font-size="13" fill="#0b0b0b" text-anchor="start" font-weight="600" >glowRadius 2</text>
<text x="776.0" y="80.0" font-size="11" fill="#52514e" text-anchor="end" font-weight="400" >last lit pixel 124 px</text>
<rect x="547.5" y="106" width="228.5" height="170" fill="#eb6834" fill-opacity="0.10"/>
<line x1="446" x2="776" y1="276.0" y2="276.0" stroke="#c3c2b7" stroke-width="1"/>
<text x="438.0" y="280.0" font-size="11" fill="#898781" text-anchor="end" font-weight="400" font-variant-numeric="tabular-nums">0</text>
<line x1="446" x2="776" y1="219.3" y2="219.3" stroke="#e1e0d9" stroke-width="1"/>
<text x="438.0" y="223.3" font-size="11" fill="#898781" text-anchor="end" font-weight="400" font-variant-numeric="tabular-nums">4</text>
<line x1="446" x2="776" y1="162.7" y2="162.7" stroke="#e1e0d9" stroke-width="1"/>
<text x="438.0" y="166.7" font-size="11" fill="#898781" text-anchor="end" font-weight="400" font-variant-numeric="tabular-nums">8</text>
<line x1="446" x2="776" y1="106.0" y2="106.0" stroke="#e1e0d9" stroke-width="1"/>
<text x="438.0" y="110.0" font-size="11" fill="#898781" text-anchor="end" font-weight="400" font-variant-numeric="tabular-nums">12</text>
<text x="446.0" y="292.0" font-size="11" fill="#898781" text-anchor="middle" font-weight="400" font-variant-numeric="tabular-nums">0</text>
<text x="512.0" y="292.0" font-size="11" fill="#898781" text-anchor="middle" font-weight="400" font-variant-numeric="tabular-nums">100</text>
<text x="578.0" y="292.0" font-size="11" fill="#898781" text-anchor="middle" font-weight="400" font-variant-numeric="tabular-nums">200</text>
<text x="644.0" y="292.0" font-size="11" fill="#898781" text-anchor="middle" font-weight="400" font-variant-numeric="tabular-nums">300</text>
<text x="710.0" y="292.0" font-size="11" fill="#898781" text-anchor="middle" font-weight="400" font-variant-numeric="tabular-nums">400</text>
<text x="776.0" y="292.0" font-size="11" fill="#898781" text-anchor="middle" font-weight="400" font-variant-numeric="tabular-nums">500</text>
<clipPath id="c1"><rect x="446" y="106" width="330" height="170"/></clipPath>
<polyline points="446.0,106.0 446.7,106.0 447.3,106.0 448.0,106.0 448.6,106.0 449.3,106.0 450.0,106.0 450.6,106.0 451.3,106.0 451.9,106.0 452.6,106.0 453.3,106.0 453.9,106.0 454.6,106.0 455.2,106.0 455.9,106.0 456.6,106.0 457.2,106.0 457.9,106.0 458.5,106.0 459.2,106.0 459.9,106.0 460.5,106.0 461.2,106.0 461.8,106.0 462.5,106.0 463.2,106.0 463.8,106.0 464.5,106.0 465.1,106.0 465.8,106.0 466.5,106.0 467.1,106.0 467.8,106.0 468.4,106.0 469.1,106.0 469.8,106.0 470.4,106.0 471.1,106.0 471.7,106.0 472.4,106.0 473.1,106.0 473.7,106.0 474.4,106.0 475.0,106.0 475.7,106.0 476.4,106.0 477.0,106.0 477.7,106.0 478.3,106.0 479.0,106.0 479.7,106.0 480.3,106.0 481.0,106.0 481.6,106.0 482.3,106.0 483.0,106.0 483.6,106.0 484.3,106.0 484.9,106.0 485.6,106.0 486.3,106.0 486.9,106.0 487.6,106.0 488.2,106.0 488.9,106.0 489.6,106.0 490.2,106.0 490.9,106.0 491.5,106.0 492.2,106.0 492.9,106.0 493.5,106.0 494.2,106.0 494.8,106.0 495.5,106.0 496.2,106.0 496.8,106.0 497.5,106.0 498.1,106.0 498.8,106.0 499.5,106.0 500.1,106.0 500.8,106.0 501.4,106.0 502.1,106.0 502.8,106.0 503.4,106.0 504.1,106.0 504.7,106.0 505.4,106.0 506.1,106.0 506.7,106.0 507.4,120.2 508.0,120.2 508.7,134.3 509.4,134.3 510.0,134.3 510.7,148.5 511.3,148.5 512.0,148.5 512.7,162.7 513.3,162.7 514.0,162.7 514.6,176.8 515.3,176.8 516.0,176.8 516.6,191.0 517.3,191.0 517.9,191.0 518.6,205.2 519.3,205.2 519.9,205.2 520.6,219.3 521.2,219.3 521.9,219.3 522.6,233.5 523.2,233.5 523.9,233.5 524.5,247.7 525.2,247.7 525.9,247.7 526.5,261.8 527.2,261.8 527.8,261.8 528.5,276.0 529.2,276.0 529.8,276.0 530.5,276.0 531.1,276.0 531.8,276.0 532.5,276.0 533.1,276.0 533.8,276.0 534.4,276.0 535.1,276.0 535.8,276.0 536.4,276.0 537.1,276.0 537.7,276.0 538.4,276.0 539.1,276.0 539.7,276.0 540.4,276.0 541.0,276.0 541.7,276.0 542.4,276.0 543.0,276.0 543.7,276.0 544.3,276.0 545.0,276.0 545.7,276.0 546.3,276.0 547.0,276.0 547.6,276.0 548.3,276.0 549.0,276.0 549.6,276.0 550.3,276.0 550.9,276.0 551.6,276.0 552.3,276.0 552.9,276.0 553.6,276.0 554.2,276.0 554.9,276.0 555.6,276.0 556.2,276.0 556.9,276.0 557.5,276.0 558.2,276.0 558.9,276.0 559.5,276.0 560.2,276.0 560.8,276.0 561.5,276.0 562.2,276.0 562.8,276.0 563.5,276.0 564.1,276.0 564.8,276.0 565.5,276.0 566.1,276.0 566.8,276.0 567.4,276.0 568.1,276.0 568.8,276.0 569.4,276.0 570.1,276.0 570.7,276.0 571.4,276.0 572.1,276.0 572.7,276.0 573.4,276.0 574.0,276.0 574.7,276.0 575.4,276.0 576.0,276.0 576.7,276.0 577.3,276.0 578.0,276.0 578.7,276.0 579.3,276.0 580.0,276.0 580.6,276.0 581.3,276.0 582.0,276.0 582.6,276.0 583.3,276.0 583.9,276.0 584.6,276.0 585.3,276.0 585.9,276.0 586.6,276.0 587.2,276.0 587.9,276.0 588.6,276.0 589.2,276.0 589.9,276.0 590.5,276.0 591.2,276.0 591.9,276.0 592.5,276.0 593.2,276.0 593.8,276.0 594.5,276.0 595.2,276.0 595.8,276.0 596.5,276.0 597.1,276.0 597.8,276.0 598.5,276.0 599.1,276.0 599.8,276.0 600.4,276.0 601.1,276.0 601.8,276.0 602.4,276.0 603.1,276.0 603.7,276.0 604.4,276.0 605.1,276.0 605.7,276.0 606.4,276.0 607.0,276.0 607.7,276.0 608.4,276.0 609.0,276.0 609.7,276.0 610.3,276.0 611.0,276.0 611.7,276.0 612.3,276.0 613.0,276.0 613.6,276.0 614.3,276.0 615.0,276.0 615.6,276.0 616.3,276.0 616.9,276.0 617.6,276.0 618.3,276.0 618.9,276.0 619.6,276.0 620.2,276.0 620.9,276.0 621.6,276.0 622.2,276.0 622.9,276.0 623.5,276.0 624.2,276.0 624.9,276.0 625.5,276.0 626.2,276.0 626.8,276.0 627.5,276.0 628.2,276.0 628.8,276.0 629.5,276.0 630.1,276.0 630.8,276.0 631.5,276.0 632.1,276.0 632.8,276.0 633.4,276.0 634.1,276.0 634.8,276.0 635.4,276.0 636.1,276.0 636.7,276.0 637.4,276.0 638.1,276.0 638.7,276.0 639.4,276.0 640.0,276.0 640.7,276.0 641.4,276.0 642.0,276.0 642.7,276.0 643.3,276.0 644.0,276.0 644.7,276.0 645.3,276.0 646.0,276.0 646.6,276.0 647.3,276.0 648.0,276.0 648.6,276.0 649.3,276.0 649.9,276.0 650.6,276.0 651.3,276.0 651.9,276.0 652.6,276.0 653.2,276.0 653.9,276.0 654.6,276.0 655.2,276.0 655.9,276.0 656.5,276.0 657.2,276.0 657.9,276.0 658.5,276.0 659.2,276.0 659.8,276.0 660.5,276.0 661.2,276.0 661.8,276.0 662.5,276.0 663.1,276.0 663.8,276.0 664.5,276.0 665.1,276.0 665.8,276.0 666.4,276.0 667.1,276.0 667.8,276.0 668.4,276.0 669.1,276.0 669.7,276.0 670.4,276.0 671.1,276.0 671.7,276.0 672.4,276.0 673.0,276.0 673.7,276.0 674.4,276.0 675.0,276.0 675.7,276.0 676.3,276.0 677.0,276.0 677.7,276.0 678.3,276.0 679.0,276.0 679.6,276.0 680.3,276.0 681.0,276.0 681.6,276.0 682.3,276.0 682.9,276.0 683.6,276.0 684.3,276.0 684.9,276.0 685.6,276.0 686.2,276.0 686.9,276.0 687.6,276.0 688.2,276.0 688.9,276.0 689.5,276.0 690.2,276.0 690.9,276.0 691.5,276.0 692.2,276.0 692.8,276.0 693.5,276.0 694.2,276.0 694.8,276.0 695.5,276.0 696.1,276.0 696.8,276.0 697.5,276.0 698.1,276.0 698.8,276.0 699.4,276.0 700.1,276.0 700.8,276.0 701.4,276.0 702.1,276.0 702.7,276.0 703.4,276.0 704.1,276.0 704.7,276.0 705.4,276.0 706.0,276.0 706.7,276.0 707.4,276.0 708.0,276.0 708.7,276.0 709.3,276.0 710.0,276.0 710.7,276.0 711.3,276.0 712.0,276.0 712.6,276.0 713.3,276.0 714.0,276.0 714.6,276.0 715.3,276.0 715.9,276.0 716.6,276.0 717.3,276.0 717.9,276.0 718.6,276.0 719.2,276.0 719.9,276.0 720.6,276.0 721.2,276.0 721.9,276.0 722.5,276.0 723.2,276.0 723.9,276.0 724.5,276.0 725.2,276.0 725.8,276.0 726.5,276.0 727.2,276.0 727.8,276.0 728.5,276.0 729.1,276.0 729.8,276.0 730.5,276.0 731.1,276.0 731.8,276.0 732.4,276.0 733.1,276.0 733.8,276.0 734.4,276.0 735.1,276.0 735.7,276.0 736.4,276.0 737.1,276.0 737.7,276.0 738.4,276.0 739.0,276.0 739.7,276.0 740.4,276.0 741.0,276.0 741.7,276.0 742.3,276.0 743.0,276.0 743.7,276.0 744.3,276.0 745.0,276.0 745.6,276.0 746.3,276.0 747.0,276.0 747.6,276.0 748.3,276.0 748.9,276.0 749.6,276.0 750.3,276.0 750.9,276.0 751.6,276.0 752.2,276.0 752.9,276.0 753.6,276.0 754.2,276.0 754.9,276.0 755.5,276.0 756.2,276.0 756.9,276.0 757.5,276.0 758.2,276.0 758.8,276.0 759.5,276.0 760.2,276.0 760.8,276.0 761.5,276.0 762.1,276.0 762.8,276.0 763.5,276.0 764.1,276.0 764.8,276.0 765.4,276.0 766.1,276.0 766.8,276.0 767.4,276.0 768.1,276.0 768.7,276.0 769.4,276.0 770.1,276.0 770.7,276.0 771.4,276.0 772.0,276.0 772.7,276.0 773.4,276.0 774.0,276.0 774.7,276.0 775.3,276.0 776.0,276.0" fill="none" stroke="#2a78d6" stroke-width="2" stroke-linejoin="round" clip-path="url(#c1)"/>
<line x1="528.4" x2="528.4" y1="106" y2="276" stroke="#52514e" stroke-width="1.5" stroke-dasharray="4 3"/>
<text x="524.4" y="100.0" font-size="11" fill="#52514e" text-anchor="end" font-weight="400" >reach 125</text>
<line x1="547.5" x2="547.5" y1="106" y2="276" stroke="#eb6834" stroke-width="2"/>
<text x="551.5" y="100.0" font-size="11" fill="#0b0b0b" text-anchor="start" font-weight="600" >hole 154</text>
<text x="776.0" y="310.0" font-size="11" fill="#898781" text-anchor="end" font-weight="400" >depth inside the edge, px</text>
<text x="52.0" y="342.0" font-size="13" fill="#0b0b0b" text-anchor="start" font-weight="600" >glowRadius 2, bloom 0, intensity 3</text>
<text x="382.0" y="342.0" font-size="11" fill="#52514e" text-anchor="end" font-weight="400" >last lit pixel 184 px</text>
<rect x="219.2" y="368" width="162.8" height="170" fill="#eb6834" fill-opacity="0.10"/>
<line x1="52" x2="382" y1="538.0" y2="538.0" stroke="#c3c2b7" stroke-width="1"/>
<text x="44.0" y="542.0" font-size="11" fill="#898781" text-anchor="end" font-weight="400" font-variant-numeric="tabular-nums">0</text>
<line x1="52" x2="382" y1="481.3" y2="481.3" stroke="#e1e0d9" stroke-width="1"/>
<text x="44.0" y="485.3" font-size="11" fill="#898781" text-anchor="end" font-weight="400" font-variant-numeric="tabular-nums">4</text>
<line x1="52" x2="382" y1="424.7" y2="424.7" stroke="#e1e0d9" stroke-width="1"/>
<text x="44.0" y="428.7" font-size="11" fill="#898781" text-anchor="end" font-weight="400" font-variant-numeric="tabular-nums">8</text>
<line x1="52" x2="382" y1="368.0" y2="368.0" stroke="#e1e0d9" stroke-width="1"/>
<text x="44.0" y="372.0" font-size="11" fill="#898781" text-anchor="end" font-weight="400" font-variant-numeric="tabular-nums">12</text>
<text x="52.0" y="554.0" font-size="11" fill="#898781" text-anchor="middle" font-weight="400" font-variant-numeric="tabular-nums">0</text>
<text x="118.0" y="554.0" font-size="11" fill="#898781" text-anchor="middle" font-weight="400" font-variant-numeric="tabular-nums">100</text>
<text x="184.0" y="554.0" font-size="11" fill="#898781" text-anchor="middle" font-weight="400" font-variant-numeric="tabular-nums">200</text>
<text x="250.0" y="554.0" font-size="11" fill="#898781" text-anchor="middle" font-weight="400" font-variant-numeric="tabular-nums">300</text>
<text x="316.0" y="554.0" font-size="11" fill="#898781" text-anchor="middle" font-weight="400" font-variant-numeric="tabular-nums">400</text>
<text x="382.0" y="554.0" font-size="11" fill="#898781" text-anchor="middle" font-weight="400" font-variant-numeric="tabular-nums">500</text>
<clipPath id="c2"><rect x="52" y="368" width="330" height="170"/></clipPath>
<polyline points="52.0,368.0 52.7,368.0 53.3,368.0 54.0,368.0 54.6,368.0 55.3,368.0 56.0,368.0 56.6,368.0 57.3,368.0 57.9,368.0 58.6,368.0 59.3,368.0 59.9,368.0 60.6,368.0 61.2,368.0 61.9,368.0 62.6,368.0 63.2,368.0 63.9,368.0 64.5,368.0 65.2,368.0 65.9,368.0 66.5,368.0 67.2,368.0 67.8,368.0 68.5,368.0 69.2,368.0 69.8,368.0 70.5,368.0 71.1,368.0 71.8,368.0 72.5,382.2 73.1,382.2 73.8,396.3 74.4,396.3 75.1,410.5 75.8,410.5 76.4,410.5 77.1,424.7 77.7,424.7 78.4,438.8 79.1,438.8 79.7,438.8 80.4,438.8 81.0,453.0 81.7,453.0 82.4,453.0 83.0,453.0 83.7,467.2 84.3,467.2 85.0,467.2 85.7,467.2 86.3,467.2 87.0,481.3 87.6,481.3 88.3,481.3 89.0,481.3 89.6,481.3 90.3,481.3 90.9,481.3 91.6,495.5 92.3,495.5 92.9,495.5 93.6,495.5 94.2,495.5 94.9,495.5 95.6,495.5 96.2,495.5 96.9,495.5 97.5,495.5 98.2,495.5 98.9,495.5 99.5,495.5 100.2,509.7 100.8,509.7 101.5,509.7 102.2,509.7 102.8,509.7 103.5,509.7 104.1,509.7 104.8,509.7 105.5,509.7 106.1,509.7 106.8,509.7 107.4,509.7 108.1,509.7 108.8,509.7 109.4,509.7 110.1,509.7 110.7,509.7 111.4,509.7 112.1,509.7 112.7,509.7 113.4,509.7 114.0,509.7 114.7,509.7 115.4,509.7 116.0,509.7 116.7,523.8 117.3,523.8 118.0,523.8 118.7,523.8 119.3,523.8 120.0,523.8 120.6,523.8 121.3,523.8 122.0,523.8 122.6,523.8 123.3,523.8 123.9,523.8 124.6,523.8 125.3,523.8 125.9,523.8 126.6,523.8 127.2,523.8 127.9,523.8 128.6,523.8 129.2,523.8 129.9,523.8 130.5,523.8 131.2,523.8 131.9,523.8 132.5,523.8 133.2,523.8 133.8,523.8 134.5,523.8 135.2,523.8 135.8,523.8 136.5,523.8 137.1,523.8 137.8,523.8 138.5,523.8 139.1,523.8 139.8,523.8 140.4,523.8 141.1,523.8 141.8,523.8 142.4,523.8 143.1,523.8 143.7,523.8 144.4,523.8 145.1,523.8 145.7,523.8 146.4,523.8 147.0,523.8 147.7,523.8 148.4,523.8 149.0,523.8 149.7,523.8 150.3,523.8 151.0,523.8 151.7,523.8 152.3,523.8 153.0,523.8 153.6,523.8 154.3,523.8 155.0,523.8 155.6,523.8 156.3,523.8 156.9,523.8 157.6,523.8 158.3,523.8 158.9,523.8 159.6,523.8 160.2,523.8 160.9,523.8 161.6,523.8 162.2,523.8 162.9,523.8 163.5,523.8 164.2,523.8 164.9,523.8 165.5,523.8 166.2,523.8 166.8,523.8 167.5,523.8 168.2,523.8 168.8,523.8 169.5,523.8 170.1,523.8 170.8,523.8 171.5,523.8 172.1,523.8 172.8,523.8 173.4,538.0 174.1,538.0 174.8,538.0 175.4,538.0 176.1,538.0 176.7,538.0 177.4,538.0 178.1,538.0 178.7,538.0 179.4,538.0 180.0,538.0 180.7,538.0 181.4,538.0 182.0,538.0 182.7,538.0 183.3,538.0 184.0,538.0 184.7,538.0 185.3,538.0 186.0,538.0 186.6,538.0 187.3,538.0 188.0,538.0 188.6,538.0 189.3,538.0 189.9,538.0 190.6,538.0 191.3,538.0 191.9,538.0 192.6,538.0 193.2,538.0 193.9,538.0 194.6,538.0 195.2,538.0 195.9,538.0 196.5,538.0 197.2,538.0 197.9,538.0 198.5,538.0 199.2,538.0 199.8,538.0 200.5,538.0 201.2,538.0 201.8,538.0 202.5,538.0 203.1,538.0 203.8,538.0 204.5,538.0 205.1,538.0 205.8,538.0 206.4,538.0 207.1,538.0 207.8,538.0 208.4,538.0 209.1,538.0 209.7,538.0 210.4,538.0 211.1,538.0 211.7,538.0 212.4,538.0 213.0,538.0 213.7,538.0 214.4,538.0 215.0,538.0 215.7,538.0 216.3,538.0 217.0,538.0 217.7,538.0 218.3,538.0 219.0,538.0 219.6,538.0 220.3,538.0 221.0,538.0 221.6,538.0 222.3,538.0 222.9,538.0 223.6,538.0 224.3,538.0 224.9,538.0 225.6,538.0 226.2,538.0 226.9,538.0 227.6,538.0 228.2,538.0 228.9,538.0 229.5,538.0 230.2,538.0 230.9,538.0 231.5,538.0 232.2,538.0 232.8,538.0 233.5,538.0 234.2,538.0 234.8,538.0 235.5,538.0 236.1,538.0 236.8,538.0 237.5,538.0 238.1,538.0 238.8,538.0 239.4,538.0 240.1,538.0 240.8,538.0 241.4,538.0 242.1,538.0 242.7,538.0 243.4,538.0 244.1,538.0 244.7,538.0 245.4,538.0 246.0,538.0 246.7,538.0 247.4,538.0 248.0,538.0 248.7,538.0 249.3,538.0 250.0,538.0 250.7,538.0 251.3,538.0 252.0,538.0 252.6,538.0 253.3,538.0 254.0,538.0 254.6,538.0 255.3,538.0 255.9,538.0 256.6,538.0 257.3,538.0 257.9,538.0 258.6,538.0 259.2,538.0 259.9,538.0 260.6,538.0 261.2,538.0 261.9,538.0 262.5,538.0 263.2,538.0 263.9,538.0 264.5,538.0 265.2,538.0 265.8,538.0 266.5,538.0 267.2,538.0 267.8,538.0 268.5,538.0 269.1,538.0 269.8,538.0 270.5,538.0 271.1,538.0 271.8,538.0 272.4,538.0 273.1,538.0 273.8,538.0 274.4,538.0 275.1,538.0 275.7,538.0 276.4,538.0 277.1,538.0 277.7,538.0 278.4,538.0 279.0,538.0 279.7,538.0 280.4,538.0 281.0,538.0 281.7,538.0 282.3,538.0 283.0,538.0 283.7,538.0 284.3,538.0 285.0,538.0 285.6,538.0 286.3,538.0 287.0,538.0 287.6,538.0 288.3,538.0 288.9,538.0 289.6,538.0 290.3,538.0 290.9,538.0 291.6,538.0 292.2,538.0 292.9,538.0 293.6,538.0 294.2,538.0 294.9,538.0 295.5,538.0 296.2,538.0 296.9,538.0 297.5,538.0 298.2,538.0 298.8,538.0 299.5,538.0 300.2,538.0 300.8,538.0 301.5,538.0 302.1,538.0 302.8,538.0 303.5,538.0 304.1,538.0 304.8,538.0 305.4,538.0 306.1,538.0 306.8,538.0 307.4,538.0 308.1,538.0 308.7,538.0 309.4,538.0 310.1,538.0 310.7,538.0 311.4,538.0 312.0,538.0 312.7,538.0 313.4,538.0 314.0,538.0 314.7,538.0 315.3,538.0 316.0,538.0 316.7,538.0 317.3,538.0 318.0,538.0 318.6,538.0 319.3,538.0 320.0,538.0 320.6,538.0 321.3,538.0 321.9,538.0 322.6,538.0 323.3,538.0 323.9,538.0 324.6,538.0 325.2,538.0 325.9,538.0 326.6,538.0 327.2,538.0 327.9,538.0 328.5,538.0 329.2,538.0 329.9,538.0 330.5,538.0 331.2,538.0 331.8,538.0 332.5,538.0 333.2,538.0 333.8,538.0 334.5,538.0 335.1,538.0 335.8,538.0 336.5,538.0 337.1,538.0 337.8,538.0 338.4,538.0 339.1,538.0 339.8,538.0 340.4,538.0 341.1,538.0 341.7,538.0 342.4,538.0 343.1,538.0 343.7,538.0 344.4,538.0 345.0,538.0 345.7,538.0 346.4,538.0 347.0,538.0 347.7,538.0 348.3,538.0 349.0,538.0 349.7,538.0 350.3,538.0 351.0,538.0 351.6,538.0 352.3,538.0 353.0,538.0 353.6,538.0 354.3,538.0 354.9,538.0 355.6,538.0 356.3,538.0 356.9,538.0 357.6,538.0 358.2,538.0 358.9,538.0 359.6,538.0 360.2,538.0 360.9,538.0 361.5,538.0 362.2,538.0 362.9,538.0 363.5,538.0 364.2,538.0 364.8,538.0 365.5,538.0 366.2,538.0 366.8,538.0 367.5,538.0 368.1,538.0 368.8,538.0 369.5,538.0 370.1,538.0 370.8,538.0 371.4,538.0 372.1,538.0 372.8,538.0 373.4,538.0 374.1,538.0 374.7,538.0 375.4,538.0 376.1,538.0 376.7,538.0 377.4,538.0 378.0,538.0 378.7,538.0 379.4,538.0 380.0,538.0 380.7,538.0 381.3,538.0 382.0,538.0" fill="none" stroke="#2a78d6" stroke-width="2" stroke-linejoin="round" clip-path="url(#c2)"/>
<line x1="115.4" x2="115.4" y1="368" y2="538" stroke="#52514e" stroke-width="1.5" stroke-dasharray="4 3"/>
<text x="111.4" y="362.0" font-size="11" fill="#52514e" text-anchor="end" font-weight="400" >reach 96</text>
<line x1="219.2" x2="219.2" y1="368" y2="538" stroke="#eb6834" stroke-width="2"/>
<text x="223.2" y="362.0" font-size="11" fill="#0b0b0b" text-anchor="start" font-weight="600" >hole 253</text>
<text x="382.0" y="572.0" font-size="11" fill="#898781" text-anchor="end" font-weight="400" >depth inside the edge, px</text>
<text x="446.0" y="342.0" font-size="13" fill="#0b0b0b" text-anchor="start" font-weight="600" >Circle, glowRadius 3</text>
<text x="776.0" y="342.0" font-size="11" fill="#52514e" text-anchor="end" font-weight="400" >last lit pixel 245 px</text>
<rect x="681.5" y="368" width="94.5" height="170" fill="#eb6834" fill-opacity="0.10"/>
<line x1="446" x2="776" y1="538.0" y2="538.0" stroke="#c3c2b7" stroke-width="1"/>
<text x="438.0" y="542.0" font-size="11" fill="#898781" text-anchor="end" font-weight="400" font-variant-numeric="tabular-nums">0</text>
<line x1="446" x2="776" y1="481.3" y2="481.3" stroke="#e1e0d9" stroke-width="1"/>
<text x="438.0" y="485.3" font-size="11" fill="#898781" text-anchor="end" font-weight="400" font-variant-numeric="tabular-nums">4</text>
<line x1="446" x2="776" y1="424.7" y2="424.7" stroke="#e1e0d9" stroke-width="1"/>
<text x="438.0" y="428.7" font-size="11" fill="#898781" text-anchor="end" font-weight="400" font-variant-numeric="tabular-nums">8</text>
<line x1="446" x2="776" y1="368.0" y2="368.0" stroke="#e1e0d9" stroke-width="1"/>
<text x="438.0" y="372.0" font-size="11" fill="#898781" text-anchor="end" font-weight="400" font-variant-numeric="tabular-nums">12</text>
<text x="446.0" y="554.0" font-size="11" fill="#898781" text-anchor="middle" font-weight="400" font-variant-numeric="tabular-nums">0</text>
<text x="512.0" y="554.0" font-size="11" fill="#898781" text-anchor="middle" font-weight="400" font-variant-numeric="tabular-nums">100</text>
<text x="578.0" y="554.0" font-size="11" fill="#898781" text-anchor="middle" font-weight="400" font-variant-numeric="tabular-nums">200</text>
<text x="644.0" y="554.0" font-size="11" fill="#898781" text-anchor="middle" font-weight="400" font-variant-numeric="tabular-nums">300</text>
<text x="710.0" y="554.0" font-size="11" fill="#898781" text-anchor="middle" font-weight="400" font-variant-numeric="tabular-nums">400</text>
<text x="776.0" y="554.0" font-size="11" fill="#898781" text-anchor="middle" font-weight="400" font-variant-numeric="tabular-nums">500</text>
<clipPath id="c3"><rect x="446" y="368" width="330" height="170"/></clipPath>
<polyline points="446.0,368.0 446.7,368.0 447.3,368.0 448.0,368.0 448.6,368.0 449.3,368.0 450.0,368.0 450.6,368.0 451.3,368.0 451.9,368.0 452.6,368.0 453.3,368.0 453.9,368.0 454.6,368.0 455.2,368.0 455.9,368.0 456.6,368.0 457.2,368.0 457.9,368.0 458.5,368.0 459.2,368.0 459.9,368.0 460.5,368.0 461.2,368.0 461.8,368.0 462.5,368.0 463.2,368.0 463.8,368.0 464.5,368.0 465.1,368.0 465.8,368.0 466.5,368.0 467.1,368.0 467.8,368.0 468.4,368.0 469.1,368.0 469.8,368.0 470.4,368.0 471.1,368.0 471.7,368.0 472.4,368.0 473.1,368.0 473.7,368.0 474.4,368.0 475.0,368.0 475.7,368.0 476.4,368.0 477.0,368.0 477.7,368.0 478.3,368.0 479.0,368.0 479.7,368.0 480.3,368.0 481.0,368.0 481.6,368.0 482.3,368.0 483.0,368.0 483.6,368.0 484.3,368.0 484.9,368.0 485.6,368.0 486.3,368.0 486.9,368.0 487.6,368.0 488.2,368.0 488.9,368.0 489.6,368.0 490.2,368.0 490.9,368.0 491.5,368.0 492.2,368.0 492.9,368.0 493.5,368.0 494.2,368.0 494.8,368.0 495.5,368.0 496.2,368.0 496.8,368.0 497.5,368.0 498.1,368.0 498.8,368.0 499.5,368.0 500.1,368.0 500.8,368.0 501.4,368.0 502.1,368.0 502.8,368.0 503.4,368.0 504.1,368.0 504.7,368.0 505.4,368.0 506.1,368.0 506.7,368.0 507.4,368.0 508.0,368.0 508.7,368.0 509.4,368.0 510.0,368.0 510.7,368.0 511.3,368.0 512.0,368.0 512.7,368.0 513.3,368.0 514.0,368.0 514.6,368.0 515.3,368.0 516.0,368.0 516.6,368.0 517.3,368.0 517.9,368.0 518.6,368.0 519.3,368.0 519.9,368.0 520.6,368.0 521.2,368.0 521.9,368.0 522.6,368.0 523.2,368.0 523.9,368.0 524.5,368.0 525.2,368.0 525.9,368.0 526.5,368.0 527.2,368.0 527.8,368.0 528.5,368.0 529.2,368.0 529.8,368.0 530.5,368.0 531.1,368.0 531.8,368.0 532.5,368.0 533.1,368.0 533.8,368.0 534.4,368.0 535.1,368.0 535.8,368.0 536.4,368.0 537.1,368.0 537.7,368.0 538.4,368.0 539.1,368.0 539.7,368.0 540.4,368.0 541.0,368.0 541.7,368.0 542.4,368.0 543.0,368.0 543.7,368.0 544.3,368.0 545.0,368.0 545.7,382.2 546.3,382.2 547.0,382.2 547.6,382.2 548.3,382.2 549.0,382.2 549.6,396.3 550.3,396.3 550.9,396.3 551.6,396.3 552.3,396.3 552.9,396.3 553.6,396.3 554.2,410.5 554.9,410.5 555.6,410.5 556.2,410.5 556.9,410.5 557.5,410.5 558.2,410.5 558.9,424.7 559.5,424.7 560.2,424.7 560.8,424.7 561.5,424.7 562.2,424.7 562.8,424.7 563.5,424.7 564.1,438.8 564.8,438.8 565.5,438.8 566.1,438.8 566.8,438.8 567.4,438.8 568.1,438.8 568.8,438.8 569.4,453.0 570.1,453.0 570.7,453.0 571.4,453.0 572.1,453.0 572.7,453.0 573.4,453.0 574.0,453.0 574.7,453.0 575.4,467.2 576.0,467.2 576.7,467.2 577.3,467.2 578.0,467.2 578.7,467.2 579.3,467.2 580.0,467.2 580.6,467.2 581.3,481.3 582.0,481.3 582.6,481.3 583.3,481.3 583.9,481.3 584.6,481.3 585.3,481.3 585.9,481.3 586.6,481.3 587.2,481.3 587.9,495.5 588.6,495.5 589.2,495.5 589.9,495.5 590.5,495.5 591.2,495.5 591.9,495.5 592.5,495.5 593.2,495.5 593.8,495.5 594.5,509.7 595.2,509.7 595.8,509.7 596.5,509.7 597.1,509.7 597.8,509.7 598.5,509.7 599.1,509.7 599.8,509.7 600.4,509.7 601.1,523.8 601.8,523.8 602.4,523.8 603.1,523.8 603.7,523.8 604.4,523.8 605.1,523.8 605.7,523.8 606.4,523.8 607.0,523.8 607.7,523.8 608.4,538.0 609.0,538.0 609.7,538.0 610.3,538.0 611.0,538.0 611.7,538.0 612.3,538.0 613.0,538.0 613.6,538.0 614.3,538.0 615.0,538.0 615.6,538.0 616.3,538.0 616.9,538.0 617.6,538.0 618.3,538.0 618.9,538.0 619.6,538.0 620.2,538.0 620.9,538.0 621.6,538.0 622.2,538.0 622.9,538.0 623.5,538.0 624.2,538.0 624.9,538.0 625.5,538.0 626.2,538.0 626.8,538.0 627.5,538.0 628.2,538.0 628.8,538.0 629.5,538.0 630.1,538.0 630.8,538.0 631.5,538.0 632.1,538.0 632.8,538.0 633.4,538.0 634.1,538.0 634.8,538.0 635.4,538.0 636.1,538.0 636.7,538.0 637.4,538.0 638.1,538.0 638.7,538.0 639.4,538.0 640.0,538.0 640.7,538.0 641.4,538.0 642.0,538.0 642.7,538.0 643.3,538.0 644.0,538.0 644.7,538.0 645.3,538.0 646.0,538.0 646.6,538.0 647.3,538.0 648.0,538.0 648.6,538.0 649.3,538.0 649.9,538.0 650.6,538.0 651.3,538.0 651.9,538.0 652.6,538.0 653.2,538.0 653.9,538.0 654.6,538.0 655.2,538.0 655.9,538.0 656.5,538.0 657.2,538.0 657.9,538.0 658.5,538.0 659.2,538.0 659.8,538.0 660.5,538.0 661.2,538.0 661.8,538.0 662.5,538.0 663.1,538.0 663.8,538.0 664.5,538.0 665.1,538.0 665.8,538.0 666.4,538.0 667.1,538.0 667.8,538.0 668.4,538.0 669.1,538.0 669.7,538.0 670.4,538.0 671.1,538.0 671.7,538.0 672.4,538.0 673.0,538.0 673.7,538.0 674.4,538.0 675.0,538.0 675.7,538.0 676.3,538.0 677.0,538.0 677.7,538.0 678.3,538.0 679.0,538.0 679.6,538.0 680.3,538.0 681.0,538.0 681.6,538.0 682.3,538.0 682.9,538.0 683.6,538.0 684.3,538.0 684.9,538.0 685.6,538.0 686.2,538.0 686.9,538.0 687.6,538.0 688.2,538.0 688.9,538.0 689.5,538.0 690.2,538.0 690.9,538.0 691.5,538.0 692.2,538.0 692.8,538.0 693.5,538.0 694.2,538.0 694.8,538.0 695.5,538.0 696.1,538.0 696.8,538.0 697.5,538.0 698.1,538.0 698.8,538.0 699.4,538.0 700.1,538.0 700.8,538.0 701.4,538.0 702.1,538.0 702.7,538.0 703.4,538.0 704.1,538.0 704.7,538.0 705.4,538.0 706.0,538.0 706.7,538.0 707.4,538.0 708.0,538.0 708.7,538.0 709.3,538.0 710.0,538.0 710.7,538.0 711.3,538.0 712.0,538.0 712.6,538.0 713.3,538.0 714.0,538.0 714.6,538.0 715.3,538.0 715.9,538.0 716.6,538.0 717.3,538.0 717.9,538.0 718.6,538.0 719.2,538.0 719.9,538.0 720.6,538.0 721.2,538.0 721.9,538.0 722.5,538.0 723.2,538.0 723.9,538.0 724.5,538.0 725.2,538.0 725.8,538.0 726.5,538.0 727.2,538.0 727.8,538.0 728.5,538.0 729.1,538.0 729.8,538.0 730.5,538.0 731.1,538.0 731.8,538.0 732.4,538.0 733.1,538.0 733.8,538.0 734.4,538.0 735.1,538.0 735.7,538.0 736.4,538.0 737.1,538.0 737.7,538.0 738.4,538.0 739.0,538.0 739.7,538.0 740.4,538.0 741.0,538.0 741.7,538.0 742.3,538.0 743.0,538.0 743.7,538.0 744.3,538.0 745.0,538.0 745.6,538.0 746.3,538.0 747.0,538.0 747.6,538.0 748.3,538.0 748.9,538.0 749.6,538.0 750.3,538.0 750.9,538.0 751.6,538.0 752.2,538.0 752.9,538.0 753.6,538.0 754.2,538.0 754.9,538.0 755.5,538.0 756.2,538.0 756.9,538.0 757.5,538.0 758.2,538.0 758.8,538.0 759.5,538.0 760.2,538.0 760.8,538.0 761.5,538.0 762.1,538.0 762.8,538.0 763.5,538.0 764.1,538.0 764.8,538.0 765.4,538.0 766.1,538.0 766.8,538.0 767.4,538.0 768.1,538.0 768.7,538.0 769.4,538.0 770.1,538.0 770.7,538.0 771.4,538.0 772.0,538.0 772.7,538.0 773.4,538.0 774.0,538.0 774.7,538.0 775.3,538.0 776.0,538.0" fill="none" stroke="#2a78d6" stroke-width="2" stroke-linejoin="round" clip-path="url(#c3)"/>
<line x1="569.6" x2="569.6" y1="368" y2="538" stroke="#52514e" stroke-width="1.5" stroke-dasharray="4 3"/>
<text x="565.6" y="362.0" font-size="11" fill="#52514e" text-anchor="end" font-weight="400" >reach 187</text>
<line x1="681.5" x2="681.5" y1="368" y2="538" stroke="#eb6834" stroke-width="2"/>
<text x="685.5" y="362.0" font-size="11" fill="#0b0b0b" text-anchor="start" font-weight="600" >hole 357</text>
<text x="776.0" y="572.0" font-size="11" fill="#898781" text-anchor="end" font-weight="400" >depth inside the edge, px</text>
</svg>