<svg xmlns="http://www.w3.org/2000/svg" width="720" height="360" viewBox="0 0 720 360" font-family="Helvetica, Arial, sans-serif">
<rect width="100%" height="100%" fill="#ffffff"/>
<text x="64" y="22" font-size="15" font-weight="bold" fill="#222">Along the bottom edge, past the end of an arc</text>
<line x1="64.0" y1="36" x2="64.0" y2="308" stroke="#e6e6e6"/>
<text x="64.0" y="324" font-size="11" fill="#444" text-anchor="middle">250</text>
<line x1="143.3" y1="36" x2="143.3" y2="308" stroke="#e6e6e6"/>
<text x="143.3" y="324" font-size="11" fill="#444" text-anchor="middle">300</text>
<line x1="222.7" y1="36" x2="222.7" y2="308" stroke="#e6e6e6"/>
<text x="222.7" y="324" font-size="11" fill="#444" text-anchor="middle">350</text>
<line x1="302.0" y1="36" x2="302.0" y2="308" stroke="#e6e6e6"/>
<text x="302.0" y="324" font-size="11" fill="#444" text-anchor="middle">400</text>
<line x1="381.3" y1="36" x2="381.3" y2="308" stroke="#e6e6e6"/>
<text x="381.3" y="324" font-size="11" fill="#444" text-anchor="middle">450</text>
<line x1="460.7" y1="36" x2="460.7" y2="308" stroke="#e6e6e6"/>
<text x="460.7" y="324" font-size="11" fill="#444" text-anchor="middle">500</text>
<line x1="540.0" y1="36" x2="540.0" y2="308" stroke="#e6e6e6"/>
<text x="540.0" y="324" font-size="11" fill="#444" text-anchor="middle">550</text>
<line x1="64" y1="308.0" x2="540" y2="308.0" stroke="#e6e6e6"/>
<text x="58" y="312.0" font-size="11" fill="#444" text-anchor="end">0</text>
<line x1="64" y1="255.7" x2="540" y2="255.7" stroke="#e6e6e6"/>
<text x="58" y="259.7" font-size="11" fill="#444" text-anchor="end">50</text>
<line x1="64" y1="203.4" x2="540" y2="203.4" stroke="#e6e6e6"/>
<text x="58" y="207.4" font-size="11" fill="#444" text-anchor="end">100</text>
<line x1="64" y1="151.1" x2="540" y2="151.1" stroke="#e6e6e6"/>
<text x="58" y="155.1" font-size="11" fill="#444" text-anchor="end">150</text>
<line x1="64" y1="98.8" x2="540" y2="98.8" stroke="#e6e6e6"/>
<text x="58" y="102.8" font-size="11" fill="#444" text-anchor="end">200</text>
<line x1="64" y1="46.5" x2="540" y2="46.5" stroke="#e6e6e6"/>
<text x="58" y="50.5" font-size="11" fill="#444" text-anchor="end">250</text>
<line x1="279.8" y1="36" x2="279.8" y2="308" stroke="#888" stroke-dasharray="3,3"/>
<line x1="302.0" y1="36" x2="302.0" y2="308" stroke="#888" stroke-dasharray="3,3"/>
<rect x="64" y="36" width="476" height="272" fill="none" stroke="#999"/>
<text x="302" y="348" font-size="12" fill="#222" text-anchor="middle">x, px (the arc ends at 400; lit to the left)</text>
<text transform="translate(16,172) rotate(-90)" font-size="12" fill="#222" text-anchor="middle">luma, 0-255</text>
<clipPath id="plot"><rect x="64" y="36" width="476" height="272"/></clipPath>
<polyline clip-path="url(#plot)" fill="none" stroke="#d62728" stroke-width="2" points="64.0,126.6 65.6,126.6 67.2,126.6 68.8,126.6 70.3,126.6 71.9,126.6 73.5,126.6 75.1,126.6 76.7,126.6 78.3,126.6 79.9,126.6 81.5,126.6 83.0,126.6 84.6,126.6 86.2,126.6 87.8,126.6 89.4,126.6 91.0,126.6 92.6,126.6 94.1,126.6 95.7,126.6 97.3,126.6 98.9,126.6 100.5,126.6 102.1,126.6 103.7,126.6 105.3,126.6 106.8,126.6 108.4,126.6 110.0,126.6 111.6,126.6 113.2,126.6 114.8,126.6 116.4,126.6 117.9,126.6 119.5,126.6 121.1,126.6 122.7,126.6 124.3,126.6 125.9,126.6 127.5,126.6 129.1,126.6 130.6,126.6 132.2,126.6 133.8,126.6 135.4,126.6 137.0,126.6 138.6,126.6 140.2,126.6 141.7,126.6 143.3,126.6 144.9,126.6 146.5,126.6 148.1,126.6 149.7,126.6 151.3,126.6 152.9,126.6 154.4,126.6 156.0,126.6 157.6,126.6 159.2,126.6 160.8,126.6 162.4,126.6 164.0,126.6 165.5,126.6 167.1,126.6 168.7,126.6 170.3,126.6 171.9,126.6 173.5,126.6 175.1,126.6 176.7,126.6 178.2,126.6 179.8,126.6 181.4,126.6 183.0,126.6 184.6,126.6 186.2,126.6 187.8,126.6 189.3,126.6 190.9,126.6 192.5,126.6 194.1,126.6 195.7,126.6 197.3,126.6 198.9,126.6 200.5,126.6 202.0,126.6 203.6,126.6 205.2,126.6 206.8,126.6 208.4,126.6 210.0,126.6 211.6,126.6 213.1,126.6 214.7,126.6 216.3,126.6 217.9,126.6 219.5,126.6 221.1,126.6 222.7,126.6 224.3,126.6 225.8,126.6 227.4,126.6 229.0,126.6 230.6,126.6 232.2,126.6 233.8,126.6 235.4,126.6 236.9,126.6 238.5,126.6 240.1,126.6 241.7,126.6 243.3,126.6 244.9,126.6 246.5,126.6 248.1,126.6 249.6,126.6 251.2,126.6 252.8,126.6 254.4,126.6 256.0,126.6 257.6,126.6 259.2,126.6 260.7,126.6 262.3,126.6 263.9,126.7 265.5,126.7 267.1,126.7 268.7,126.7 270.3,126.7 271.9,126.7 273.4,126.7 275.0,126.7 276.6,126.7 278.2,126.7 279.8,126.7 281.4,126.7 283.0,127.5 284.5,127.8 286.1,128.6 287.7,130.2 289.3,131.1 290.9,133.8 292.5,136.6 294.1,141.0 295.7,148.1 297.2,157.8 298.8,171.0 300.4,183.4 302.0,186.2 303.6,187.9 305.2,189.7 306.8,191.4 308.3,192.6 309.9,194.2 311.5,196.1 313.1,197.8 314.7,199.5 316.3,201.4 317.9,203.1 319.5,205.8 321.0,207.4 322.6,209.3 324.2,211.1 325.8,213.8 327.4,215.4 329.0,217.4 330.6,219.8 332.1,221.8 333.7,223.4 335.3,225.4 336.9,227.0 338.5,228.9 340.1,230.5 341.7,231.4 343.3,233.4 344.8,235.0 346.4,235.8 348.0,237.7 349.6,238.6 351.2,240.5 352.8,241.4 354.4,243.0 355.9,243.9 357.5,244.9 359.1,245.7 360.7,246.6 362.3,247.5 363.9,248.5 365.5,249.4 367.1,250.2 368.6,251.0 370.2,251.9 371.8,252.9 373.4,253.7 375.0,254.6 376.6,255.4 378.2,255.5 379.7,256.5 381.3,257.3 382.9,258.2 384.5,258.2 386.1,259.0 387.7,259.8 389.3,259.9 390.9,260.9 392.4,261.7 394.0,261.7 395.6,262.6 397.2,262.6 398.8,263.4 400.4,263.4 402.0,264.2 403.5,264.5 405.1,265.3 406.7,265.3 408.3,266.1 409.9,266.2 411.5,266.9 413.1,267.0 414.7,267.0 416.2,267.8 417.8,267.8 419.4,267.9 421.0,268.9 422.6,268.9 424.2,269.7 425.8,269.8 427.3,269.8 428.9,270.5 430.5,270.6 432.1,270.6 433.7,271.4 435.3,271.4 436.9,271.4 438.5,272.2 440.0,272.2 441.6,272.4 443.2,272.5 444.8,273.3 446.4,273.3 448.0,273.3 449.6,274.1 451.1,274.2 452.7,274.2 454.3,274.2 455.9,274.9 457.5,275.0 459.1,275.0 460.7,275.0 462.3,275.7 463.8,275.8 465.4,275.8 467.0,275.8 468.6,276.6 470.2,276.9 471.8,276.9 473.4,276.9 474.9,276.9 476.5,277.7 478.1,277.7 479.7,277.7 481.3,277.8 482.9,277.8 484.5,278.5 486.1,278.5 487.6,278.6 489.2,278.6 490.8,278.6 492.4,279.3 494.0,279.3 495.6,279.4 497.2,279.4 498.7,279.4 500.3,279.4 501.9,279.4 503.5,280.2 505.1,280.2 506.7,280.2 508.3,280.5 509.9,280.5 511.4,280.5 513.0,281.3 514.6,281.3 516.2,281.3 517.8,281.3 519.4,281.3 521.0,281.4 522.5,281.4 524.1,282.1 525.7,282.1 527.3,282.1 528.9,282.1 530.5,282.2 532.1,282.2 533.7,282.2 535.2,282.9 536.8,282.9 538.4,282.9 540.0,282.9 "/>
<line x1="554" y1="44" x2="578" y2="44" stroke="#d62728" stroke-width="2"/>
<text x="584" y="48" font-size="12" fill="#222">on the line (filament)</text>
<polyline clip-path="url(#plot)" fill="none" stroke="#1f77b4" stroke-width="2" points="64.0,183.4 65.6,183.4 67.2,183.4 68.8,183.4 70.3,183.4 71.9,183.4 73.5,183.4 75.1,183.4 76.7,183.4 78.3,183.4 79.9,183.4 81.5,183.4 83.0,183.4 84.6,183.4 86.2,183.4 87.8,183.4 89.4,183.4 91.0,183.4 92.6,183.4 94.1,183.4 95.7,183.4 97.3,183.4 98.9,183.4 100.5,183.4 102.1,183.4 103.7,183.4 105.3,183.4 106.8,183.4 108.4,183.4 110.0,183.4 111.6,183.4 113.2,183.4 114.8,183.4 116.4,183.4 117.9,183.4 119.5,183.4 121.1,183.4 122.7,183.4 124.3,183.4 125.9,183.4 127.5,183.4 129.1,183.4 130.6,183.4 132.2,183.4 133.8,183.4 135.4,183.4 137.0,183.4 138.6,183.4 140.2,183.5 141.7,183.5 143.3,183.5 144.9,183.5 146.5,183.5 148.1,183.5 149.7,183.5 151.3,183.5 152.9,183.5 154.4,183.5 156.0,183.5 157.6,183.5 159.2,184.3 160.8,184.3 162.4,184.3 164.0,184.5 165.5,184.5 167.1,184.5 168.7,184.5 170.3,184.5 171.9,184.5 173.5,184.5 175.1,184.5 176.7,184.5 178.2,184.5 179.8,184.5 181.4,184.5 183.0,184.5 184.6,184.6 186.2,184.6 187.8,184.6 189.3,184.6 190.9,184.6 192.5,184.6 194.1,184.6 195.7,184.6 197.3,184.6 198.9,185.3 200.5,185.3 202.0,185.3 203.6,185.3 205.2,185.3 206.8,185.3 208.4,185.3 210.0,185.4 211.6,185.4 213.1,185.4 214.7,185.4 216.3,185.4 217.9,185.4 219.5,185.4 221.1,185.4 222.7,186.1 224.3,186.1 225.8,186.2 227.4,186.2 229.0,186.2 230.6,186.2 232.2,186.2 233.8,186.2 235.4,186.2 236.9,187.0 238.5,187.0 240.1,187.0 241.7,187.0 243.3,187.0 244.9,187.0 246.5,187.0 248.1,187.9 249.6,187.9 251.2,187.9 252.8,187.9 254.4,188.2 256.0,188.2 257.6,188.9 259.2,188.9 260.7,189.0 262.3,189.0 263.9,189.7 265.5,189.8 267.1,189.8 268.7,190.6 270.3,190.6 271.9,190.6 273.4,191.5 275.0,191.5 276.6,192.5 278.2,192.5 279.8,193.3 281.4,193.4 283.0,194.2 284.5,195.0 286.1,195.1 287.7,195.9 289.3,196.9 290.9,197.7 292.5,197.8 294.1,198.6 295.7,199.5 297.2,201.3 298.8,202.2 300.4,203.1 302.0,204.1 303.6,205.8 305.2,206.7 306.8,208.2 308.3,209.3 309.9,211.0 311.5,212.1 313.1,213.8 314.7,215.4 316.3,216.5 317.9,218.2 319.5,219.8 321.0,221.0 322.6,222.6 324.2,224.5 325.8,226.2 327.4,227.8 329.0,229.0 330.6,230.6 332.1,232.3 333.7,233.4 335.3,235.0 336.9,236.1 338.5,237.7 340.1,239.4 341.7,240.5 343.3,241.4 344.8,243.0 346.4,243.9 348.0,244.9 349.6,246.6 351.2,247.4 352.8,248.3 354.4,249.3 355.9,250.1 357.5,251.0 359.1,251.9 360.7,252.9 362.3,253.7 363.9,254.6 365.5,255.4 367.1,256.2 368.6,257.3 370.2,257.3 371.8,258.2 373.4,259.0 375.0,259.8 376.6,259.9 378.2,260.9 379.7,261.7 381.3,261.7 382.9,262.6 384.5,263.4 386.1,263.4 387.7,264.2 389.3,264.5 390.9,265.3 392.4,265.3 394.0,266.2 395.6,266.2 397.2,267.0 398.8,267.0 400.4,267.8 402.0,267.9 403.5,268.9 405.1,268.9 406.7,269.7 408.3,269.8 409.9,269.8 411.5,270.6 413.1,270.6 414.7,271.3 416.2,271.4 417.8,271.4 419.4,272.2 421.0,272.2 422.6,272.5 424.2,273.3 425.8,273.3 427.3,273.3 428.9,274.1 430.5,274.1 432.1,274.2 433.7,274.2 435.3,275.0 436.9,275.0 438.5,275.0 440.0,275.8 441.6,275.8 443.2,275.8 444.8,275.8 446.4,276.9 448.0,276.9 449.6,276.9 451.1,276.9 452.7,277.7 454.3,277.7 455.9,277.7 457.5,277.8 459.1,277.8 460.7,278.5 462.3,278.6 463.8,278.6 465.4,278.6 467.0,279.3 468.6,279.3 470.2,279.4 471.8,279.4 473.4,279.4 474.9,280.2 476.5,280.2 478.1,280.2 479.7,280.2 481.3,280.5 482.9,280.5 484.5,281.3 486.1,281.3 487.6,281.3 489.2,281.3 490.8,281.4 492.4,281.4 494.0,282.1 495.6,282.1 497.2,282.1 498.7,282.1 500.3,282.2 501.9,282.2 503.5,282.2 505.1,282.9 506.7,282.9 508.3,282.9 509.9,283.0 511.4,283.0 513.0,283.0 514.6,283.0 516.2,283.8 517.8,283.8 519.4,283.8 521.0,283.8 522.5,283.8 524.1,283.8 525.7,283.8 527.3,283.8 528.9,284.7 530.5,284.9 532.1,284.9 533.7,284.9 535.2,284.9 536.8,284.9 538.4,284.9 540.0,284.9 "/>
<line x1="554" y1="64" x2="578" y2="64" stroke="#1f77b4" stroke-width="2"/>
<text x="584" y="68" font-size="12" fill="#222">12 px outside (glow)</text>
<polyline clip-path="url(#plot)" fill="none" stroke="#9467bd" stroke-width="2" stroke-dasharray="6,4" points="64.0,201.4 65.6,201.4 67.2,201.4 68.8,201.4 70.3,201.4 71.9,201.4 73.5,201.4 75.1,201.4 76.7,201.4 78.3,201.4 79.9,201.4 81.5,201.4 83.0,201.4 84.6,201.4 86.2,201.4 87.8,201.4 89.4,201.4 91.0,201.4 92.6,202.2 94.1,202.2 95.7,202.2 97.3,202.2 98.9,202.2 100.5,202.2 102.1,202.2 103.7,202.2 105.3,202.2 106.8,202.2 108.4,202.2 110.0,202.2 111.6,202.2 113.2,202.2 114.8,202.2 116.4,202.2 117.9,202.2 119.5,202.2 121.1,202.2 122.7,202.2 124.3,202.2 125.9,202.2 127.5,202.2 129.1,202.2 130.6,202.2 132.2,202.2 133.8,202.2 135.4,202.2 137.0,202.2 138.6,202.2 140.2,202.2 141.7,202.2 143.3,202.2 144.9,202.2 146.5,202.2 148.1,203.0 149.7,203.0 151.3,203.0 152.9,203.0 154.4,203.0 156.0,203.0 157.6,203.0 159.2,203.0 160.8,203.1 162.4,203.1 164.0,203.1 165.5,203.1 167.1,203.1 168.7,203.1 170.3,203.1 171.9,203.1 173.5,203.1 175.1,203.1 176.7,203.1 178.2,203.8 179.8,203.8 181.4,203.8 183.0,203.9 184.6,203.9 186.2,203.9 187.8,203.9 189.3,203.9 190.9,203.9 192.5,204.1 194.1,204.1 195.7,204.1 197.3,204.9 198.9,204.9 200.5,204.9 202.0,204.9 203.6,204.9 205.2,204.9 206.8,204.9 208.4,204.9 210.0,204.9 211.6,205.0 213.1,205.8 214.7,205.8 216.3,205.8 217.9,205.8 219.5,205.8 221.1,205.8 222.7,205.8 224.3,206.6 225.8,206.6 227.4,206.6 229.0,206.6 230.6,206.7 232.2,206.7 233.8,207.4 235.4,207.4 236.9,207.5 238.5,207.5 240.1,207.5 241.7,208.2 243.3,208.5 244.9,208.5 246.5,208.5 248.1,209.3 249.6,209.3 251.2,209.3 252.8,209.3 254.4,210.2 256.0,210.2 257.6,210.2 259.2,211.0 260.7,211.0 262.3,211.1 263.9,211.8 265.5,211.9 267.1,212.1 268.7,212.9 270.3,212.9 271.9,213.8 273.4,213.8 275.0,213.8 276.6,214.6 278.2,214.7 279.8,215.4 281.4,215.5 283.0,216.5 284.5,217.3 286.1,217.4 287.7,218.2 289.3,218.3 290.9,219.0 292.5,219.8 294.1,220.1 295.7,221.0 297.2,221.8 298.8,222.6 300.4,222.7 302.0,223.5 303.6,224.5 305.2,225.4 306.8,226.2 308.3,227.0 309.9,227.1 311.5,228.1 313.1,229.0 314.7,229.8 316.3,230.6 317.9,231.4 319.5,232.5 321.0,233.3 322.6,234.1 324.2,235.0 325.8,235.8 327.4,236.9 329.0,237.7 330.6,237.8 332.1,238.6 333.7,239.4 335.3,240.5 336.9,241.3 338.5,242.2 340.1,243.0 341.7,243.9 343.3,244.9 344.8,245.7 346.4,245.8 348.0,246.6 349.6,247.5 351.2,248.3 352.8,249.3 354.4,249.4 355.9,250.1 357.5,251.0 359.1,251.8 360.7,251.9 362.3,252.9 363.9,253.7 365.5,253.8 367.1,254.6 368.6,255.4 370.2,255.5 371.8,256.5 373.4,257.3 375.0,257.3 376.6,258.2 378.2,258.2 379.7,259.0 381.3,259.8 382.9,259.9 384.5,260.8 386.1,260.9 387.7,261.7 389.3,261.7 390.9,262.6 392.4,262.6 394.0,263.4 395.6,263.4 397.2,264.2 398.8,264.2 400.4,264.5 402.0,265.3 403.5,265.3 405.1,266.1 406.7,266.2 408.3,266.2 409.9,267.0 411.5,267.0 413.1,267.8 414.7,267.8 416.2,267.9 417.8,268.9 419.4,268.9 421.0,268.9 422.6,269.7 424.2,269.8 425.8,269.8 427.3,270.5 428.9,270.6 430.5,270.6 432.1,271.4 433.7,271.4 435.3,271.4 436.9,272.2 438.5,272.2 440.0,272.4 441.6,272.5 443.2,273.3 444.8,273.3 446.4,273.3 448.0,273.3 449.6,274.1 451.1,274.2 452.7,274.2 454.3,274.2 455.9,274.9 457.5,275.0 459.1,275.0 460.7,275.0 462.3,275.8 463.8,275.8 465.4,275.8 467.0,275.8 468.6,275.9 470.2,276.9 471.8,276.9 473.4,276.9 474.9,276.9 476.5,276.9 478.1,277.7 479.7,277.7 481.3,277.7 482.9,277.8 484.5,277.8 486.1,278.5 487.6,278.5 489.2,278.6 490.8,278.6 492.4,278.6 494.0,279.3 495.6,279.3 497.2,279.4 498.7,279.4 500.3,279.4 501.9,279.4 503.5,279.4 505.1,280.2 506.7,280.2 508.3,280.2 509.9,280.2 511.4,280.5 513.0,280.5 514.6,281.3 516.2,281.3 517.8,281.3 519.4,281.3 521.0,281.3 522.5,281.4 524.1,281.4 525.7,282.1 527.3,282.1 528.9,282.1 530.5,282.1 532.1,282.2 533.7,282.2 535.2,282.2 536.8,282.2 538.4,282.9 540.0,282.9 "/>
<line x1="554" y1="84" x2="578" y2="84" stroke="#9467bd" stroke-width="2" stroke-dasharray="6,4"/>
<text x="584" y="88" font-size="12" fill="#222">30 px outside (glow)</text>
</svg>
